<?xml version="1.0" encoding="UTF-8" standalone="no"?>
<!DOCTYPE svg PUBLIC "-//W3C//DTD SVG 1.1//EN"
 "http://www.w3.org/Graphics/SVG/1.1/DTD/svg11.dtd">
<!-- Generated by graphviz version 2.43.0 (0)
 -->
<!-- Title: G Pages: 1 -->
<svg width="356pt" height="595pt"
 viewBox="0.00 0.00 356.00 595.37" xmlns="http://www.w3.org/2000/svg" xmlns:xlink="http://www.w3.org/1999/xlink">
<g id="graph0" class="graph" transform="scale(1 1) rotate(0) translate(4 591.37)">
<title>G</title>
<polygon fill="white" stroke="transparent" points="-4,4 -4,-591.37 352,-591.37 352,4 -4,4"/>
<text text-anchor="middle" x="174" y="-6.8" font-family="Times,serif" font-size="14.00">Query Plan &#45; Generated By hidva/gpplan2dot</text>
<g id="clust1" class="cluster">
<title>cluster_1</title>
<polygon fill="pink" stroke="pink" points="8,-30 8,-118 190,-118 190,-30 8,-30"/>
<text text-anchor="middle" x="99" y="-50.8" font-family="Times,serif" font-size="14.00">slice1</text>
<text text-anchor="middle" x="99" y="-36.8" font-family="Times,serif" font-size="14.00">(size=3 type=PrimaryReader)</text>
</g>
<g id="clust2" class="cluster">
<title>cluster_2</title>
<polygon fill="pink" stroke="pink" points="19,-190.68 19,-522.68 340,-522.68 340,-190.68 19,-190.68"/>
<text text-anchor="middle" x="179.5" y="-211.48" font-family="Times,serif" font-size="14.00">slice2</text>
<text text-anchor="middle" x="179.5" y="-197.48" font-family="Times,serif" font-size="14.00">(size=3 type=PrimaryReader)</text>
</g>
<!-- Plan4 -->
<g id="node1" class="node">
<title>Plan4</title>
<polygon fill="black" stroke="black" points="331.88,-428.68 188.12,-428.68 188.12,-392.68 331.88,-392.68 331.88,-428.68"/>
<text text-anchor="middle" x="260" y="-413.48" font-family="Times,serif" font-size="14.00" fill="white">[3]SeqScan lineitem</text>
<text text-anchor="middle" x="260" y="-399.48" font-family="Times,serif" font-size="14.00" fill="white">Rows=32629 Width=8</text>
</g>
<!-- Plan2 -->
<g id="node2" class="node">
<title>Plan2</title>
<polygon fill="black" stroke="black" points="305.48,-514.68 52.52,-514.68 52.52,-464.68 305.48,-464.68 305.48,-514.68"/>
<text text-anchor="middle" x="179" y="-499.48" font-family="Times,serif" font-size="14.00" fill="white">[2]HashJoin Inner</text>
<text text-anchor="middle" x="179" y="-485.48" font-family="Times,serif" font-size="14.00" fill="white">(lineitem.l_orderkey = orders.o_orderkey)</text>
<text text-anchor="middle" x="179" y="-471.48" font-family="Times,serif" font-size="14.00" fill="white">Rows=2927 Width=16</text>
</g>
<!-- Plan4&#45;&gt;Plan2 -->
<g id="edge1" class="edge">
<title>Plan4&#45;&gt;Plan2</title>
<path fill="none" stroke="black" d="M242.02,-428.77C233.1,-437.26 222.03,-447.78 211.67,-457.62"/>
<polygon fill="black" stroke="black" points="209.14,-455.21 204.3,-464.63 213.96,-460.28 209.14,-455.21"/>
</g>
<!-- Plan1 -->
<g id="node9" class="node">
<title>Plan1</title>
<polygon fill="black" stroke="black" points="250.88,-587.21 107.12,-587.21 107.12,-550.84 250.88,-550.84 250.88,-587.21"/>
<text text-anchor="middle" x="179" y="-572.17" font-family="Times,serif" font-size="14.00" fill="white">[1]GatherMotion 3→1</text>
<text text-anchor="middle" x="179" y="-557.48" font-family="Times,serif" font-size="14.00" fill="white">Rows=2927 Width=16</text>
</g>
<!-- Plan2&#45;&gt;Plan1 -->
<g id="edge8" class="edge">
<title>Plan2&#45;&gt;Plan1</title>
<path fill="none" stroke="black" d="M179,-514.73C179,-522.84 179,-531.95 179,-540.32"/>
<polygon fill="black" stroke="black" points="175.5,-540.38 179,-550.38 182.5,-540.38 175.5,-540.38"/>
</g>
<!-- Plan7 -->
<g id="node3" class="node">
<title>Plan7</title>
<polygon fill="black" stroke="black" points="324.88,-270.68 181.12,-270.68 181.12,-234.68 324.88,-234.68 324.88,-270.68"/>
<text text-anchor="middle" x="253" y="-255.48" font-family="Times,serif" font-size="14.00" fill="white">[6]SeqScan orders</text>
<text text-anchor="middle" x="253" y="-241.48" font-family="Times,serif" font-size="14.00" fill="white">Rows=7234 Width=20</text>
</g>
<!-- Plan6 -->
<g id="node4" class="node">
<title>Plan6</title>
<polygon fill="black" stroke="black" points="272.5,-356.68 27.5,-356.68 27.5,-306.68 272.5,-306.68 272.5,-356.68"/>
<text text-anchor="middle" x="150" y="-341.48" font-family="Times,serif" font-size="14.00" fill="white">[5]HashJoin Inner</text>
<text text-anchor="middle" x="150" y="-327.48" font-family="Times,serif" font-size="14.00" fill="white">(orders.o_custkey = customer.c_custkey)</text>
<text text-anchor="middle" x="150" y="-313.48" font-family="Times,serif" font-size="14.00" fill="white">Rows=1346 Width=16</text>
</g>
<!-- Plan7&#45;&gt;Plan6 -->
<g id="edge2" class="edge">
<title>Plan7&#45;&gt;Plan6</title>
<path fill="none" stroke="black" d="M230.14,-270.77C218.46,-279.5 203.9,-290.39 190.4,-300.48"/>
<polygon fill="black" stroke="black" points="188.08,-297.84 182.17,-306.63 192.28,-303.45 188.08,-297.84"/>
</g>
<!-- Plan5 -->
<g id="node8" class="node">
<title>Plan5</title>
<polygon fill="black" stroke="black" points="170.88,-428.68 27.12,-428.68 27.12,-392.68 170.88,-392.68 170.88,-428.68"/>
<text text-anchor="middle" x="99" y="-413.48" font-family="Times,serif" font-size="14.00" fill="white">[4]Hash</text>
<text text-anchor="middle" x="99" y="-399.48" font-family="Times,serif" font-size="14.00" fill="white">Rows=1346 Width=16</text>
</g>
<!-- Plan6&#45;&gt;Plan5 -->
<g id="edge6" class="edge">
<title>Plan6&#45;&gt;Plan5</title>
<path fill="none" stroke="black" d="M133.86,-357.05C128.23,-365.55 121.89,-375.12 116.18,-383.74"/>
<polygon fill="black" stroke="black" points="113.11,-382.04 110.51,-392.31 118.95,-385.9 113.11,-382.04"/>
</g>
<!-- Plan10 -->
<g id="node5" class="node">
<title>Plan10</title>
<polygon fill="black" stroke="black" points="166.86,-110 31.14,-110 31.14,-74 166.86,-74 166.86,-110"/>
<text text-anchor="middle" x="99" y="-94.8" font-family="Times,serif" font-size="14.00" fill="white">[9]SeqScan customer</text>
<text text-anchor="middle" x="99" y="-80.8" font-family="Times,serif" font-size="14.00" fill="white">Rows=279 Width=4</text>
</g>
<!-- Plan9 -->
<g id="node6" class="node">
<title>Plan9</title>
<polygon fill="black" stroke="black" points="179.35,-182.53 18.65,-182.53 18.65,-146.16 179.35,-146.16 179.35,-182.53"/>
<text text-anchor="middle" x="99" y="-167.48" font-family="Times,serif" font-size="14.00" fill="white">[8]BroadcastMotion 3→3</text>
<text text-anchor="middle" x="99" y="-152.8" font-family="Times,serif" font-size="14.00" fill="white">Rows=837 Width=4</text>
</g>
<!-- Plan10&#45;&gt;Plan9 -->
<g id="edge3" class="edge">
<title>Plan10&#45;&gt;Plan9</title>
<path fill="none" stroke="black" d="M99,-110.03C99,-117.77 99,-127.14 99,-135.84"/>
<polygon fill="black" stroke="black" points="95.5,-135.98 99,-145.98 102.5,-135.98 95.5,-135.98"/>
</g>
<!-- Plan8 -->
<g id="node7" class="node">
<title>Plan8</title>
<polygon fill="black" stroke="black" points="163.88,-270.68 34.12,-270.68 34.12,-234.68 163.88,-234.68 163.88,-270.68"/>
<text text-anchor="middle" x="99" y="-255.48" font-family="Times,serif" font-size="14.00" fill="white">[7]Hash</text>
<text text-anchor="middle" x="99" y="-241.48" font-family="Times,serif" font-size="14.00" fill="white">Rows=837 Width=4</text>
</g>
<!-- Plan9&#45;&gt;Plan8 -->
<g id="edge4" class="edge">
<title>Plan9&#45;&gt;Plan8</title>
<path fill="none" stroke="black" d="M99,-182.81C99,-194.71 99,-210.7 99,-224.28"/>
<polygon fill="black" stroke="black" points="95.5,-224.53 99,-234.53 102.5,-224.53 95.5,-224.53"/>
</g>
<!-- Plan8&#45;&gt;Plan6 -->
<g id="edge5" class="edge">
<title>Plan8&#45;&gt;Plan6</title>
<path fill="none" stroke="black" d="M110.32,-270.77C115.67,-278.85 122.23,-288.76 128.47,-298.18"/>
<polygon fill="black" stroke="black" points="125.63,-300.23 134.07,-306.63 131.47,-296.36 125.63,-300.23"/>
</g>
<!-- Plan5&#45;&gt;Plan2 -->
<g id="edge7" class="edge">
<title>Plan5&#45;&gt;Plan2</title>
<path fill="none" stroke="black" d="M116.75,-428.77C125.57,-437.26 136.5,-447.78 146.73,-457.62"/>
<polygon fill="black" stroke="black" points="144.38,-460.22 154.01,-464.63 149.24,-455.18 144.38,-460.22"/>
</g>
</g>
</svg>
