<?xml version="1.0" encoding="UTF-8" standalone="no"?>
<!DOCTYPE svg PUBLIC "-//W3C//DTD SVG 1.1//EN"
 "http://www.w3.org/Graphics/SVG/1.1/DTD/svg11.dtd">
<!-- Generated by graphviz version 2.43.0 (0)
 -->
<!-- Title: G Pages: 1 -->
<svg width="278pt" height="495pt"
 viewBox="0.00 0.00 277.88 495.37" xmlns="http://www.w3.org/2000/svg" xmlns:xlink="http://www.w3.org/1999/xlink">
<g id="graph0" class="graph" transform="scale(1 1) rotate(0) translate(4 491.37)">
<title>G</title>
<polygon fill="white" stroke="transparent" points="-4,4 -4,-491.37 273.88,-491.37 273.88,4 -4,4"/>
<text text-anchor="middle" x="134.94" y="-6.8" font-family="Times,serif" font-size="14.00">Query Plan &#45; Generated By hidva/gpplan2dot</text>
<g id="clust1" class="cluster">
<title>cluster_1</title>
<polygon fill="pink" stroke="pink" points="37.94,-30 37.94,-190 219.94,-190 219.94,-30 37.94,-30"/>
<text text-anchor="middle" x="128.94" y="-50.8" font-family="Times,serif" font-size="14.00">slice1</text>
<text text-anchor="middle" x="128.94" y="-36.8" font-family="Times,serif" font-size="14.00">(size=3 type=PrimaryReader)</text>
</g>
<g id="clust2" class="cluster">
<title>cluster_2</title>
<polygon fill="pink" stroke="pink" points="49.94,-262.68 49.94,-422.68 231.94,-422.68 231.94,-262.68 49.94,-262.68"/>
<text text-anchor="middle" x="140.94" y="-283.48" font-family="Times,serif" font-size="14.00">slice2</text>
<text text-anchor="middle" x="140.94" y="-269.48" font-family="Times,serif" font-size="14.00">(size=3 type=PrimaryReader)</text>
</g>
<!-- Plan8 -->
<g id="node1" class="node">
<title>Plan8</title>
<polygon fill="black" stroke="black" points="211.32,-110 46.56,-110 46.56,-74 211.32,-74 211.32,-110"/>
<text text-anchor="middle" x="128.94" y="-94.8" font-family="Times,serif" font-size="14.00" fill="white">ForeignScan</text>
<text text-anchor="middle" x="128.94" y="-80.8" font-family="Times,serif" font-size="14.00" fill="white">Rows=1000000 Width=48</text>
</g>
<!-- Plan6 -->
<g id="node2" class="node">
<title>Plan6</title>
<polygon fill="black" stroke="black" points="193.82,-182 64.06,-182 64.06,-146 193.82,-146 193.82,-182"/>
<text text-anchor="middle" x="128.94" y="-166.8" font-family="Times,serif" font-size="14.00" fill="white">HashedAggregate</text>
<text text-anchor="middle" x="128.94" y="-152.8" font-family="Times,serif" font-size="14.00" fill="white">Rows=1 Width=152</text>
</g>
<!-- Plan8&#45;&gt;Plan6 -->
<g id="edge1" class="edge">
<title>Plan8&#45;&gt;Plan6</title>
<path fill="none" stroke="black" d="M128.94,-110.3C128.94,-118.02 128.94,-127.29 128.94,-135.89"/>
<polygon fill="black" stroke="black" points="125.44,-135.9 128.94,-145.9 132.44,-135.9 125.44,-135.9"/>
</g>
<!-- Plan5 -->
<g id="node3" class="node">
<title>Plan5</title>
<polygon fill="black" stroke="black" points="207.42,-254.53 50.46,-254.53 50.46,-218.16 207.42,-218.16 207.42,-254.53"/>
<text text-anchor="middle" x="128.94" y="-239.48" font-family="Times,serif" font-size="14.00" fill="white">RedistributeMotion 3→3</text>
<text text-anchor="middle" x="128.94" y="-224.8" font-family="Times,serif" font-size="14.00" fill="white">Rows=1 Width=152</text>
</g>
<!-- Plan6&#45;&gt;Plan5 -->
<g id="edge2" class="edge">
<title>Plan6&#45;&gt;Plan5</title>
<path fill="none" stroke="black" d="M128.94,-182.03C128.94,-189.77 128.94,-199.14 128.94,-207.84"/>
<polygon fill="black" stroke="black" points="125.44,-207.98 128.94,-217.98 132.44,-207.98 125.44,-207.98"/>
</g>
<!-- Plan4 -->
<g id="node4" class="node">
<title>Plan4</title>
<polygon fill="black" stroke="black" points="190.32,-342.68 67.56,-342.68 67.56,-306.68 190.32,-306.68 190.32,-342.68"/>
<text text-anchor="middle" x="128.94" y="-327.48" font-family="Times,serif" font-size="14.00" fill="white">HashedAggregate</text>
<text text-anchor="middle" x="128.94" y="-313.48" font-family="Times,serif" font-size="14.00" fill="white">Rows=1 Width=80</text>
</g>
<!-- Plan5&#45;&gt;Plan4 -->
<g id="edge3" class="edge">
<title>Plan5&#45;&gt;Plan4</title>
<path fill="none" stroke="black" d="M128.94,-254.81C128.94,-266.71 128.94,-282.7 128.94,-296.28"/>
<polygon fill="black" stroke="black" points="125.44,-296.53 128.94,-306.53 132.44,-296.53 125.44,-296.53"/>
</g>
<!-- Plan2 -->
<g id="node5" class="node">
<title>Plan2</title>
<polygon fill="black" stroke="black" points="190.32,-414.68 67.56,-414.68 67.56,-378.68 190.32,-378.68 190.32,-414.68"/>
<text text-anchor="middle" x="128.94" y="-399.48" font-family="Times,serif" font-size="14.00" fill="white">Sort</text>
<text text-anchor="middle" x="128.94" y="-385.48" font-family="Times,serif" font-size="14.00" fill="white">Rows=1 Width=80</text>
</g>
<!-- Plan4&#45;&gt;Plan2 -->
<g id="edge4" class="edge">
<title>Plan4&#45;&gt;Plan2</title>
<path fill="none" stroke="black" d="M128.94,-342.99C128.94,-350.7 128.94,-359.97 128.94,-368.57"/>
<polygon fill="black" stroke="black" points="125.44,-368.58 128.94,-378.58 132.44,-368.58 125.44,-368.58"/>
</g>
<!-- Plan1 -->
<g id="node6" class="node">
<title>Plan1</title>
<polygon fill="black" stroke="black" points="192.07,-487.21 65.81,-487.21 65.81,-450.84 192.07,-450.84 192.07,-487.21"/>
<text text-anchor="middle" x="128.94" y="-472.17" font-family="Times,serif" font-size="14.00" fill="white">GatherMotion 3→1</text>
<text text-anchor="middle" x="128.94" y="-457.48" font-family="Times,serif" font-size="14.00" fill="white">Rows=1 Width=80</text>
</g>
<!-- Plan2&#45;&gt;Plan1 -->
<g id="edge5" class="edge">
<title>Plan2&#45;&gt;Plan1</title>
<path fill="none" stroke="black" d="M128.94,-414.71C128.94,-422.46 128.94,-431.82 128.94,-440.53"/>
<polygon fill="black" stroke="black" points="125.44,-440.67 128.94,-450.67 132.44,-440.67 125.44,-440.67"/>
</g>
</g>
</svg>
